<?xml version="1.0" standalone="no"?>
<svg xmlns="http://www.w3.org/2000/svg" width="48" height="48"><rect width="48" height="48" opacity="0"></rect><g><path d="M24 2.02Q18 2.02 12.96 4.97Q7.92 7.92 4.97 12.96Q2.02 18 2.02 24Q2.02 29.95 4.97 35.02Q7.92 40.08 12.98 43.03Q18.05 45.98 24 45.98Q29.95 45.98 35.02 43.03Q40.08 40.08 43.03 35.02Q45.98 29.95 45.98 24Q45.98 18 43.03 12.96Q40.08 7.92 35.04 4.97Q30 2.02 24 2.02Z" fill="rgba(101,187,92,1)"></path></g><g><path d="M21.46 32.54Q20.69 32.54 19.97 32.26Q19.25 31.97 18.72 31.39L12.43 25.1Q12 24.67 12 24.05Q12 23.42 12.43 22.99Q12.86 22.56 13.49 22.56Q14.11 22.56 14.54 22.99L20.83 29.28Q21.07 29.52 21.46 29.52Q21.84 29.52 22.08 29.28L34.46 16.9Q34.9 16.46 35.52 16.46Q36.14 16.46 36.58 16.9Q37.01 17.33 37.01 17.95Q37.01 18.58 36.58 19.01L24.24 31.39Q23.09 32.54 21.46 32.54Z" fill="rgba(255,255,255,1)"></path></g></svg>