<?xml version="1.0" standalone="no"?>
<svg xmlns="http://www.w3.org/2000/svg" width="48" height="48">
    <path d="M24 2.02Q18.05 2.02 12.98 4.97Q7.92 7.92 4.97 12.98Q2.02 18.05 2.02 24Q2.02 29.95 4.97 35.02Q7.92 40.08 12.98 43.03Q18.05 45.98 24 45.98Q29.95 45.98 35.02 43.03Q40.08 40.08 43.03 35.02Q45.98 29.95 45.98 24Q45.98 18.05 43.03 12.98Q40.08 7.92 35.02 4.97Q29.95 2.02 24 2.02Z M36.1 28.22Q36.53 28.85 36.24 29.52Q34.22 33.31 30.48 35.16Q26.74 37.01 22.66 36.38Q19.87 35.95 17.52 34.42Q15.17 32.88 13.63 30.53Q12.1 28.18 11.66 25.39Q11.14 21.94 12.36 18.77Q13.58 15.6 16.18 13.39Q18.77 11.18 22.18 10.51Q22.51 10.46 22.82 10.61Q23.14 10.75 23.33 11.04Q23.57 11.28 23.57 11.64Q23.57 12 23.33 12.29Q22.27 13.92 21.86 15.84Q21.46 17.76 21.79 19.73Q22.27 22.66 24.29 24.84Q26.3 27.02 29.14 27.84Q32.02 28.7 34.85 27.84Q35.18 27.74 35.52 27.86Q35.86 27.98 36.1 28.22Z" fill="#000000" fill-rule="evenodd"/>
</svg>