<?xml version="1.0" standalone="no"?>
<svg xmlns="http://www.w3.org/2000/svg" width="48" height="48">
    <g>
        <path d="M7.3 8.88Q4.75 8.88 3.38 10.25Q2.02 11.62 2.02 14.16L2.02 39.6Q2.02 42.14 3.38 43.51Q4.75 44.88 7.3 44.88L40.7 44.88Q43.25 44.88 44.62 43.51Q45.98 42.14 45.98 39.6L45.98 14.16Q45.98 11.62 44.62 10.25Q43.25 8.88 40.7 8.88L7.3 8.88ZM23.9 21.5Q24.72 20.64 25.75 20.16Q26.78 19.68 27.89 19.68Q29.42 19.68 30.7 20.42Q31.97 21.17 32.74 22.44Q33.5 23.71 33.5 25.3Q33.5 26.3 33.29 27Q33.07 27.7 32.54 28.56Q31.73 30 29.95 31.9Q28.18 33.79 26.4 35.18Q24.62 36.58 23.9 36.58Q23.14 36.58 21.1 34.97Q19.06 33.36 17.14 31.2Q15.22 29.04 14.69 27.5Q14.3 26.5 14.3 25.3Q14.3 22.9 15.94 21.29Q17.57 19.68 19.92 19.68Q21.02 19.68 22.08 20.16Q23.14 20.64 23.9 21.5Z" fill="none" stroke-width="3" stroke="#000000"/>
        <path d="M39.98 6.24Q40.61 6.24 41.66 6.43Q40.9 4.94 39.46 4.03Q38.02 3.12 36.34 3.12L11.66 3.12Q9.98 3.12 8.54 4.03Q7.1 4.94 6.34 6.43Q7.39 6.24 8.02 6.24L39.98 6.24Z" fill="#000000"/>
    </g>
</svg>