<?xml version="1.0" standalone="no"?>
<svg xmlns="http://www.w3.org/2000/svg" width="48" height="48"><rect width="48" height="48" opacity="0"></rect><g><path d="M25.92 2.4Q25.01 1.97 24.05 1.97Q23.09 1.97 22.13 2.4L7.78 9.07Q6.67 9.55 6.05 10.56Q5.42 11.57 5.42 12.82L5.42 22.37Q5.42 27.65 7.63 32.47Q9.84 37.3 13.8 40.8Q17.76 44.3 22.85 45.84Q24.05 46.13 25.2 45.84Q30.34 44.3 34.27 40.82Q38.21 37.34 40.39 32.57Q42.58 27.79 42.58 22.42L42.58 12.82Q42.58 11.57 41.93 10.58Q41.28 9.6 40.22 9.12L25.92 2.4ZM39.6 22.42Q39.6 27.12 37.68 31.32Q35.76 35.52 32.33 38.57Q28.9 41.62 24.38 42.96Q24 43.06 23.71 42.96Q19.25 41.62 15.77 38.54Q12.29 35.47 10.34 31.25Q8.4 27.02 8.4 22.42L8.4 12.82Q8.4 12.43 8.59 12.19Q8.69 12.1 8.81 12Q8.93 11.9 9.07 11.81L23.38 5.14Q23.57 5.04 23.81 5.02Q24.05 4.99 24.26 5.02Q24.48 5.04 24.67 5.14L38.98 11.86Q39.26 11.95 39.43 12.24Q39.6 12.53 39.6 12.86L39.6 22.42Z" fill="rgba(0,0,0,1)"></path><path d="M24.14 14.45Q22.56 14.45 21.22 15.24Q19.87 16.03 19.08 17.38Q18.29 18.72 18.29 20.3Q18.29 21.55 18.82 22.7Q19.34 23.86 20.3 24.67L19.06 30.43Q18.96 31.01 19.1 31.56Q19.25 32.11 19.58 32.54Q19.97 32.98 20.5 33.24Q21.02 33.5 21.6 33.5L26.64 33.5Q27.22 33.5 27.74 33.26Q28.27 33.02 28.61 32.54Q28.99 32.11 29.11 31.56Q29.23 31.01 29.14 30.43L27.94 24.67Q28.9 23.86 29.42 22.7Q29.95 21.55 29.95 20.3Q29.95 18.72 29.16 17.38Q28.37 16.03 27.05 15.24Q25.73 14.45 24.14 14.45ZM26.78 30.96L21.6 30.96L22.8 24.43Q22.9 24.05 22.75 23.69Q22.61 23.33 22.27 23.14Q21.55 22.66 21.14 21.91Q20.74 21.17 20.74 20.3Q20.74 18.91 21.74 17.9Q22.75 16.9 24.14 16.9Q25.54 16.9 26.54 17.9Q27.55 18.91 27.55 20.3Q27.55 21.17 27.14 21.94Q26.74 22.7 25.97 23.18Q25.63 23.38 25.49 23.71Q25.34 24.05 25.44 24.43Z" fill="rgba(0,0,0,1)"></path></g></svg>