<?xml version="1.0" standalone="no"?>
<svg xmlns="http://www.w3.org/2000/svg" width="48" height="48" fill="#000000">
    <path d="M24 8.02Q24.62 8.02 25.06 7.58Q25.49 7.15 25.49 6.58L25.49 4.42Q25.49 3.84 25.06 3.41Q24.62 2.98 24 2.98Q23.38 2.98 22.92 3.41Q22.46 3.84 22.46 4.42L22.46 6.58Q22.46 7.15 22.92 7.58Q23.38 8.02 24 8.02ZM12.67 12.72Q13.1 12.24 13.13 11.64Q13.15 11.04 12.72 10.66L11.18 9.12Q10.8 8.69 10.2 8.71Q9.6 8.74 9.17 9.17Q8.69 9.6 8.69 10.2Q8.69 10.8 9.07 11.23L10.61 12.77Q10.99 13.15 11.62 13.15Q12.24 13.15 12.67 12.72ZM8.02 24Q8.02 23.38 7.58 22.94Q7.15 22.51 6.58 22.51L4.42 22.51Q3.84 22.51 3.43 22.94Q3.02 23.38 3.02 24Q3.02 24.62 3.43 25.08Q3.84 25.54 4.42 25.54L6.58 25.54Q7.15 25.54 7.58 25.08Q8.02 24.62 8.02 24ZM12.67 35.33Q12.24 34.9 11.64 34.87Q11.04 34.85 10.66 35.28L9.12 36.77Q8.69 37.2 8.71 37.8Q8.74 38.4 9.17 38.83Q9.6 39.26 10.22 39.29Q10.85 39.31 11.23 38.88L12.77 37.39Q13.15 36.96 13.15 36.36Q13.15 35.76 12.67 35.33ZM24 39.98Q23.38 39.98 22.94 40.42Q22.51 40.85 22.51 41.42L22.51 43.58Q22.51 44.16 22.94 44.57Q23.38 44.98 24 44.98Q24.62 44.98 25.08 44.57Q25.54 44.16 25.54 43.58L25.54 41.42Q25.54 40.85 25.08 40.42Q24.62 39.98 24 39.98ZM35.33 35.28Q34.9 35.71 34.87 36.34Q34.85 36.96 35.23 37.34L36.77 38.88Q37.2 39.31 37.8 39.29Q38.4 39.26 38.83 38.83Q39.26 38.4 39.29 37.78Q39.31 37.15 38.88 36.77L37.39 35.23Q36.96 34.8 36.36 34.82Q35.76 34.85 35.33 35.28ZM39.98 24Q39.98 24.62 40.42 25.06Q40.85 25.49 41.42 25.49L43.58 25.49Q44.16 25.49 44.59 25.06Q45.02 24.62 45.02 24Q45.02 23.38 44.59 22.92Q44.16 22.46 43.58 22.46L41.42 22.46Q40.85 22.46 40.42 22.92Q39.98 23.38 39.98 24ZM35.28 12.67Q35.76 13.1 36.36 13.13Q36.96 13.15 37.34 12.72L38.88 11.23Q39.26 10.8 39.26 10.2Q39.26 9.6 38.83 9.17Q38.4 8.74 37.78 8.71Q37.15 8.69 36.72 9.12L35.23 10.61Q34.85 11.04 34.85 11.64Q34.85 12.24 35.28 12.67ZM24 9.98Q20.21 9.98 16.99 11.88Q13.78 13.78 11.88 16.99Q9.98 20.21 9.98 24Q9.98 27.79 11.88 31.01Q13.78 34.22 16.99 36.12Q20.21 38.02 24 38.02Q27.79 38.02 31.01 36.12Q34.22 34.22 36.12 31.01Q38.02 27.79 38.02 24Q38.02 20.21 36.12 16.99Q34.22 13.78 31.01 11.88Q27.79 9.98 24 9.98Z"/>
</svg>