<?xml version="1.0" standalone="no"?>
<svg xmlns="http://www.w3.org/2000/svg" width="48" height="48">
    <path d="M33.02 18.1L33.02 12.1Q33.02 9.65 31.8 7.58Q30.58 5.52 28.51 4.32Q26.45 3.12 24 3.12Q21.55 3.12 19.49 4.32Q17.42 5.52 16.22 7.58Q15.02 9.65 15.02 12.1L15.02 18.1L12.58 18.1Q11.04 18.1 9.77 18.84Q8.5 19.58 7.75 20.86Q7.01 22.13 7.01 23.62L7.01 39.31Q7.01 40.85 7.75 42.12Q8.5 43.39 9.77 44.14Q11.04 44.88 12.58 44.88L35.42 44.88Q36.91 44.88 38.21 44.14Q39.5 43.39 40.25 42.1Q40.99 40.8 40.99 39.31L40.99 23.62Q40.99 22.13 40.25 20.86Q39.5 19.58 38.23 18.84Q36.96 18.1 35.42 18.1ZM18 12.1Q18 10.46 18.82 9.1Q19.63 7.73 21 6.91Q22.37 6.1 24 6.1Q25.63 6.1 27 6.91Q28.37 7.73 29.18 9.1Q30 10.46 30 12.1L30 18.1L18 18.1L18 12.1ZM38.02 39.31Q38.02 40.37 37.25 41.14Q36.48 41.9 35.42 41.9L12.58 41.9Q11.52 41.9 10.75 41.14Q9.98 40.37 9.98 39.31L9.98 23.62Q9.98 22.56 10.75 21.82Q11.52 21.07 12.58 21.07L15.02 21.07L33.02 21.07L35.42 21.07Q36.48 21.07 37.25 21.82Q38.02 22.56 38.02 23.62L38.02 39.31ZM24 27.79Q22.51 27.79 21.41 28.87Q20.3 29.95 20.3 31.49Q20.3 32.98 21.41 34.08Q22.51 35.18 24 35.18Q25.54 35.18 26.62 34.08Q27.7 32.98 27.7 31.49Q27.7 29.95 26.62 28.87Q25.54 27.79 24 27.79Z" fill="rgba(0,0,0,0.9019607843137255)"/>
</svg>