<?xml version="1.0" standalone="no"?>
<svg xmlns="http://www.w3.org/2000/svg" width="48" height="48"><rect width="48" height="48" opacity="0"></rect><g mask="url(#hms_mask_0)"><path d="M24 3.98Q18.58 3.98 13.97 6.67Q9.36 9.36 6.67 13.97Q3.98 18.58 3.98 24Q3.98 29.42 6.67 34.03Q9.36 38.64 13.97 41.33Q18.58 44.02 24 44.02Q29.42 44.02 34.03 41.33Q38.64 38.64 41.33 34.03Q44.02 29.42 44.02 24Q44.02 18.58 41.33 13.97Q38.64 9.36 34.03 6.67Q29.42 3.98 24 3.98Z" fill="rgba(255,255,255,1)"></path></g><defs><mask id="hms_mask_0"><rect width="48" height="48" fill="#ffffff"></rect><g><path d="M23.95 7.3Q25.87 7.3 27.65 7.61Q29.42 7.92 30.53 8.59Q31.2 9.02 31.22 9.6Q31.25 10.18 30.29 10.58Q29.33 10.99 27.26 10.99L26.78 10.99L23.81 10.99Q23.28 10.99 22.87 11.33Q22.46 11.66 22.32 12.19L22.27 12.38L22.27 15.89Q22.27 16.56 21.89 17.02Q21.5 17.47 20.88 17.47L20.64 17.47L18.1 17.47Q17.09 17.76 16.73 19.01Q16.37 20.26 17.81 21.31Q19.25 22.37 23.18 22.42L23.76 22.42Q24.82 22.42 25.51 22.54Q26.21 22.66 26.98 23.14Q28.13 23.81 28.46 25.87Q28.8 27.94 27.79 31.87Q27.41 33.41 26.71 34.66Q26.02 35.9 25.37 36.62Q24.72 37.34 24.43 37.39Q23.52 37.58 23.06 37.37Q22.61 37.15 22.44 36.65Q22.27 36.14 22.08 35.09L22.08 35.04Q21.89 33.89 21.58 33.05Q21.26 32.21 20.54 31.58Q20.06 31.15 18.72 30.19Q17.52 29.38 17.04 28.82Q16.56 28.27 16.56 27.5L16.56 27.17L16.56 25.49Q16.56 24.86 16.1 24.41Q15.65 23.95 15.02 23.95Q12.43 23.81 10.61 23.26Q8.78 22.7 8.16 21.17Q6.91 18.67 9.29 15.38Q11.66 12.1 15.94 9.7Q20.21 7.3 23.95 7.3ZM40.7 23.9Q40.7 26.88 39.65 29.76Q39.36 29.62 39.14 29.47Q38.93 29.33 38.74 29.09Q37.01 27.41 36.89 24.55Q36.77 21.7 39.55 17.9L39.7 17.95Q40.22 19.2 40.46 20.64Q40.7 22.08 40.7 23.9Z" fill="#000000"></path></g></mask></defs></svg>