<?xml version="1.0" standalone="no"?>
<svg xmlns="http://www.w3.org/2000/svg" width="48" height="48"><rect width="48" height="48" opacity="0"></rect><g><path d="M9.36 36.29Q10.18 36.29 11.47 35.83Q12.77 35.38 14.21 34.66Q15.17 34.18 16.08 33.74Q20.74 34.94 25.54 33.38Q30.34 31.82 33.46 28.08Q36.58 24.34 36.58 19.44Q36.58 15.46 34.34 12.07Q32.11 8.69 28.32 6.7Q24.53 4.7 20.06 4.7Q15.6 4.7 11.78 6.7Q7.97 8.69 5.74 12.07Q3.5 15.46 3.5 19.44Q3.5 22.56 4.92 25.42Q6.34 28.27 8.93 30.38Q9.22 30.67 8.98 31.61Q8.74 32.54 8.02 34.22Q7.68 34.9 8.11 35.59Q8.54 36.29 9.36 36.29ZM20.06 7.73Q23.71 7.73 26.83 9.31Q29.95 10.9 31.78 13.58Q33.6 16.27 33.6 19.44Q33.6 23.42 31.15 26.3Q28.7 29.18 24.79 30.41Q20.88 31.63 16.7 30.86Q15.94 30.72 15.05 31.03Q14.16 31.34 12.82 32.02Q12.53 32.16 12.36 32.26Q12.19 32.35 11.9 32.5Q12.24 31.15 12.02 30Q11.81 28.85 10.8 28.03Q8.74 26.4 7.63 24.14Q6.53 21.89 6.53 19.44Q6.53 16.27 8.35 13.58Q10.18 10.9 13.3 9.31Q16.42 7.73 20.06 7.73Z" fill="rgba(255,255,255,1)"></path><path d="M44.45 27.89Q44.45 25.87 43.8 23.98Q43.15 22.08 41.95 20.45Q40.75 18.82 39.07 17.57Q39.22 18.58 39.19 19.46Q39.17 20.35 39.02 21.6L39.41 22.03Q40.42 23.38 40.94 24.84Q41.47 26.3 41.47 27.89Q41.47 30.1 40.46 32.06Q39.46 34.03 37.63 35.52Q36.72 36.24 36.5 37.25Q36.29 38.26 36.53 39.46Q36.24 39.36 35.98 39.22Q35.71 39.07 35.42 38.93Q33.79 38.02 32.88 38.02Q32.26 38.02 31.87 38.11Q29.62 38.59 27.29 38.28Q24.96 37.97 22.66 36.62Q20.98 36.96 17.86 36.67Q20.02 38.88 23.02 40.15Q26.02 41.42 29.38 41.42Q31.2 41.42 32.88 41.04Q32.98 41.09 33.05 41.11Q33.12 41.14 33.22 41.18Q36.48 43.01 38.74 43.3Q39.89 43.3 40.34 42.62Q40.8 41.95 40.42 41.23Q39.7 39.7 39.53 38.88Q39.36 38.06 39.55 37.92Q41.9 36 43.18 33.38Q44.45 30.77 44.45 27.89Z" fill="rgba(255,255,255,1)"></path></g></svg>